<?xml version="1.0" encoding="utf-8"?>
<!-- Generator: Adobe Illustrator 16.0.0, SVG Export Plug-In . SVG Version: 6.00 Build 0)  -->
<!DOCTYPE svg PUBLIC "-//W3C//DTD SVG 1.1//EN" "http://www.w3.org/Graphics/SVG/1.1/DTD/svg11.dtd">
<svg version="1.1" id="Capa_1" xmlns="http://www.w3.org/2000/svg" xmlns:xlink="http://www.w3.org/1999/xlink" x="0px" y="0px"
	 width="97.057px" height="97.057px" viewBox="0 0 97.057 97.057" enable-background="new 0 0 97.057 97.057" xml:space="preserve">
<g>
	<g>
		<path d="M86.021,43.476L49.929,57.239L13.838,43.675l-2.056,18.832c-0.096,0.774,0.175,1.55,0.732,2.096
			c0.558,0.545,1.337,0.799,2.108,0.688c1.977-0.288,3.997-0.434,6.005-0.434c11.994,0,22.727,5.081,26.705,12.643
			c0.433,0.822,1.284,1.336,2.212,1.336h0.767c0.928,0,1.779-0.514,2.212-1.335c3.979-7.562,14.711-12.643,26.703-12.643
			c2.013,0,4.033,0.146,6.007,0.434c0.121,0.02,0.374,0.025,0.381,0.026c1.381,0,2.602-1.039,2.5-2.5
			C88.1,62.602,86.021,43.476,86.021,43.476z"/>
		<path d="M95.436,29.301L50.809,12.505c-0.568-0.214-1.193-0.214-1.763,0l-44.74,16.84c-0.975,0.367-1.619,1.3-1.619,2.341V62.09
			h5.608V35.441l40.752,15.337c0.568,0.214,1.192,0.214,1.763,0l44.627-16.797c0.974-0.367,1.619-1.299,1.619-2.34
			S96.409,29.668,95.436,29.301z"/>
		<path d="M0.014,81.949c-0.074,0.705,0.153,1.408,0.628,1.935C1.116,84.41,1.791,84.71,2.5,84.71h5.982
			c0.708,0,1.384-0.301,1.857-0.827c0.475-0.525,0.703-1.229,0.628-1.935L9.335,66.445H1.645L0.014,81.949z"/>
	</g>
</g>
</svg>
