<?xml version="1.0" encoding="utf-8"?>
<!-- Generator: Adobe Illustrator 16.0.0, SVG Export Plug-In . SVG Version: 6.00 Build 0)  -->
<!DOCTYPE svg PUBLIC "-//W3C//DTD SVG 1.1//EN" "http://www.w3.org/Graphics/SVG/1.1/DTD/svg11.dtd">
<svg version="1.1" id="Capa_1" xmlns="http://www.w3.org/2000/svg" xmlns:xlink="http://www.w3.org/1999/xlink" x="0px" y="0px"
	 width="198.431px" height="198.43px" viewBox="198.425 0.001 198.431 198.43"
	 enable-background="new 198.425 0.001 198.431 198.43" xml:space="preserve">
<path d="M351.017,73.322l39.928-39.927c7.684-7.684,7.868-20.443,0.041-27.979c-7.587-7.306-19.662-7.219-27.144,0.262
	l-40.234,40.235L222.108,6.35c-7.783-2.771-16.455,0.217-20.873,7.202c-4.418,6.984-3.403,16.101,2.44,21.944l76.995,53.353
	l-47.893,47.892l-25.008-0.131c-4.485,0.021-8.315,3.368-8.86,7.918c-0.466,3.882,1.778,7.59,5.31,9.265l11.782,5.59
	c9.45,4.484,17.062,12.096,21.544,21.545l5.708,12.03c1.507,3.177,4.692,5.122,8.097,5.122c0.646,0,1.301-0.07,1.95-0.215
	c4.085-0.909,6.996-4.521,7.019-8.707l0.113-25.252l47.646-47.646l53.353,76.994c5.846,5.845,14.959,6.858,21.944,2.44
	c6.986-4.417,9.975-13.089,7.203-20.872L351.017,73.322z"/>
</svg>
