<?xml version="1.0" encoding="utf-8"?>
<!-- Generator: Adobe Illustrator 16.0.0, SVG Export Plug-In . SVG Version: 6.00 Build 0)  -->
<!DOCTYPE svg PUBLIC "-//W3C//DTD SVG 1.1//EN" "http://www.w3.org/Graphics/SVG/1.1/DTD/svg11.dtd">
<svg version="1.1" id="Capa_1" xmlns="http://www.w3.org/2000/svg" xmlns:xlink="http://www.w3.org/1999/xlink" x="0px" y="0px"
	 width="198.43px" height="198.43px" viewBox="198.425 0 198.43 198.43" enable-background="new 198.425 0 198.43 198.43"
	 xml:space="preserve">
<g>
	<path fill="#030104" d="M328.607,30.981c-7.721,0-15.115,1.348-22.037,3.709c8.254,5.126,15.438,11.771,21.192,19.566
		c0.286-0.016,0.559-0.046,0.845-0.046c24.816,0,45.012,20.188,45.012,45.013c0,24.824-20.194,45.004-45.012,45.004
		c-24.818,0-45.005-20.194-45.005-45.013c0-10.026,3.337-19.258,8.896-26.753c-5.668-5.475-13.078-9.037-21.294-10.051
		c-6.829,10.624-10.833,23.237-10.833,36.804c0,37.688,30.548,68.242,68.242,68.242c37.693,0,68.24-30.548,68.24-68.242
		C396.854,61.521,366.292,30.981,328.607,30.981z"/>
	<path fill="#030104" d="M266.659,167.457c7.72,0,15.113-1.348,22.036-3.709c-8.254-5.127-15.439-11.771-21.192-19.566
		c-0.286,0.008-0.559,0.046-0.844,0.046c-24.817,0-45.013-20.188-45.013-45.013c0-24.824,20.194-45.004,45.013-45.004
		c24.817,0,45.012,20.188,45.012,45.004c0,10.027-3.338,19.259-8.896,26.753c5.668,5.476,13.078,9.037,21.294,10.052
		c6.83-10.624,10.833-23.237,10.833-36.805c0-37.687-30.548-68.241-68.241-68.241c-37.694,0-68.234,30.556-68.234,68.241
		C198.426,136.901,228.973,167.457,266.659,167.457z"/>
</g>
</svg>
